<?xml version="1.0" standalone="no"?><!-- Generator: Gravit.io --><svg xmlns="http://www.w3.org/2000/svg" xmlns:xlink="http://www.w3.org/1999/xlink" style="isolation:isolate" viewBox="480.603 53 80 120.912" width="80" height="120.912"><path d=" M 519.582 53 C 517.362 53 515.561 55.643 515.561 58.9 C 515.561 62.156 517.362 64.8 519.582 64.8 C 521.803 64.8 523.604 62.156 523.604 58.9 C 523.604 55.643 521.803 53 519.582 53 Z  M 531.818 59.323 C 537.298 63.979 541.233 67.905 542.441 78.345 C 543.499 68.262 541.287 63.029 531.818 59.323 Z  M 509.992 59.482 C 502.209 61.21 497.369 68.421 499.37 77.459 C 499.124 72.897 502.502 64.542 509.992 59.482 Z  M 514.595 65.686 C 513.287 65.724 512.153 66.036 511.182 66.916 C 514.837 66.218 520.301 71.349 527.982 66.149 C 522.394 67.316 517.939 65.589 514.595 65.686 Z  M 512.452 69.535 C 510.582 69.573 508.958 69.885 507.571 70.765 C 512.795 70.067 520.614 75.199 531.594 69.998 C 523.605 71.165 517.232 69.439 512.452 69.535 L 512.452 69.535 Z  M 510.733 73.649 C 508.409 73.687 506.384 73.999 504.661 74.879 C 511.153 74.181 520.861 79.313 534.504 74.112 C 524.577 75.279 516.671 73.553 510.733 73.649 Z  M 496.896 78.914 C 487.383 78.946 477.797 85.383 481.366 87.896 C 485.504 90.785 493.895 98.779 497.108 105.754 C 494.996 96.482 485.594 88.393 483.509 87.01 C 492.48 79.921 505.165 81.764 508.788 94.113 C 509.728 101.48 511.026 106.661 512.571 110.529 C 511.49 112.522 509.715 114.075 507.664 113.426 C 509.919 117.312 512.295 116.546 514.119 113.836 C 518.257 121.459 523.595 122.631 528.326 129.591 C 531.335 132.861 534.9 143.38 528.855 146.814 C 528.85 146.814 528.848 146.828 528.842 146.828 C 522.793 150.449 517.938 152.882 515.402 155.731 C 504.361 167.492 517.589 174.318 519.768 173.893 C 518.218 172.989 508.641 166.403 517.413 157.768 C 519.82 155.064 524.123 152.237 530.112 148.653 C 536.91 143.893 538.394 136.039 530.747 127.131 C 519.76 112.991 513.677 114.544 512.492 93.095 C 510.751 82.277 503.839 78.891 496.896 78.914 L 496.896 78.914 Z  M 542.004 80.197 C 534.886 80.608 529.887 83.685 526.646 88.928 C 524.435 92.504 522.939 103.415 524.913 108.042 C 527.12 113.215 531.101 118.182 534.054 123.083 C 539.605 133.418 542.5 141.454 537.56 146.457 C 524.952 155.33 524.43 156.628 520.482 161.524 C 524.759 157.281 536.316 150.623 539.451 147.952 C 543.713 144.272 543.422 138.582 542.771 135.385 C 541.852 130.87 539.533 125.378 536.581 120.477 C 533.628 115.576 528.733 107.787 528.511 105.754 C 528.352 104.294 526.776 95.814 530.324 90.978 C 540.071 77.224 559.046 89.298 557.812 92.288 C 546.969 99.516 545.594 103.091 544.187 110.86 C 546.155 100.158 560.433 94.948 560.603 92.394 C 559.263 87.496 553.828 80.398 542.004 80.197 L 542.004 80.197 Z  M 519.596 81.824 C 518.36 81.824 517.36 82.867 517.36 84.166 L 517.36 85.978 C 517.36 86.046 517.368 86.11 517.373 86.176 C 516.409 87.027 515.773 88.417 515.773 89.986 C 515.773 92.574 517.487 94.669 519.595 94.669 C 521.704 94.669 523.405 92.574 523.405 89.986 C 523.405 88.418 522.781 87.027 521.818 86.176 C 521.823 86.11 521.818 86.046 521.818 85.978 L 521.818 84.166 C 521.818 82.867 520.831 81.824 519.595 81.824 L 519.596 81.824 Z  M 540.285 87.552 C 534.738 89.541 528.39 94.674 530.178 104.643 C 530.163 97.492 536.602 90.221 540.285 87.552 Z  M 499.939 91.507 C 503.324 94.571 506.37 96.937 507.386 103.862 C 508.793 99.752 506.053 91.328 499.939 91.507 Z " fill="rgb(255,215,154)"/></svg>
