<?xml version="1.0" standalone="no"?><!-- Generator: Gravit.io --><svg xmlns="http://www.w3.org/2000/svg" xmlns:xlink="http://www.w3.org/1999/xlink" style="isolation:isolate" viewBox="718.558 214.77 80 78.138" width="80" height="78.138"><g id="groom-icon"><path d=" M 798.351 281.824 C 798.254 278.635 795.81 276.03 792.541 275.627 L 790.557 275.382 C 790.531 275.108 790.373 274.86 790.121 274.734 L 786.741 273.054 C 786.525 272.947 786.276 272.954 786.059 273.049 L 785.917 270.038 C 788.178 268.213 789.796 265.541 790.364 262.871 C 791.732 262.675 792.973 261.365 793.368 260.215 L 793.368 260.215 C 793.633 259.439 793.577 258.606 793.209 257.869 C 792.844 257.136 792.213 256.586 791.434 256.32 C 791.374 256.299 791.313 256.294 791.252 256.277 C 791.379 256.128 791.486 255.96 791.537 255.759 L 792.499 252.046 C 793.796 246.872 791.411 241.488 786.83 239.245 L 786.799 239.23 C 784.386 238.048 781.732 237.692 779.114 238.199 L 777.063 238.597 C 774.944 238.01 772.694 238.439 771.017 239.753 C 770.416 240.224 769.808 240.916 769.209 241.811 C 766.965 245.16 766.098 249.513 766.83 253.751 L 767.177 255.762 C 767.228 256.057 767.371 256.313 767.572 256.508 C 766.987 256.808 766.51 257.273 766.213 257.869 C 765.845 258.606 765.789 259.439 766.054 260.215 L 766.054 260.215 C 766.45 261.368 767.696 262.681 769.068 262.872 C 769.646 265.551 771.256 268.215 773.505 270.034 L 773.363 273.05 C 773.145 272.954 772.897 272.947 772.681 273.054 L 769.301 274.734 C 769.049 274.86 768.892 275.108 768.865 275.382 L 766.881 275.627 C 765.85 275.754 764.903 276.1 764.084 276.615 L 760.805 258.363 C 759.405 250.576 755.09 244.14 749.208 240.975 C 747.704 239.456 745.311 238.466 742.611 238.466 C 739.911 238.466 737.518 239.455 736.014 240.975 C 730.132 244.139 725.816 250.576 724.417 258.363 L 718.571 290.903 C 718.492 291.343 718.784 291.763 719.224 291.842 C 719.272 291.85 719.32 291.854 719.367 291.854 C 719.752 291.854 720.092 291.58 720.163 291.189 L 726.009 258.649 C 727.126 252.433 730.195 247.148 734.443 243.904 C 734.4 244.161 734.37 244.422 734.37 244.689 C 734.37 244.694 734.371 244.7 734.371 244.705 C 734.039 245.001 733.793 245.385 733.663 245.823 C 733.053 246.174 732.446 246.586 731.861 247.088 C 728.69 249.81 727.021 254.151 726.902 259.991 C 726.874 261.35 727.15 263.02 727.678 264.693 C 728.668 267.831 731.052 270.525 734.22 272.084 L 735.974 272.704 C 736.536 273.257 737.143 273.756 737.786 274.198 L 737.786 274.953 L 737.786 276.96 C 737.786 277.16 737.637 277.333 737.44 277.362 L 735.947 277.586 L 732.781 278.061 C 728.272 278.737 725 282.538 725 287.097 L 725 292.1 C 725 292.547 725.362 292.909 725.808 292.909 C 726.255 292.909 726.617 292.547 726.617 292.1 L 726.617 290.943 L 726.617 287.097 C 726.617 285.946 726.873 284.855 727.331 283.878 L 730.88 284.84 L 736.344 286.321 C 738.394 286.877 740.503 287.154 742.611 287.154 C 744.719 287.154 746.828 286.877 748.877 286.321 L 754.363 284.834 L 757.891 283.877 C 758.349 284.854 758.605 285.945 758.605 287.096 L 758.605 290.937 L 758.605 292.1 C 758.605 292.547 758.967 292.909 759.413 292.909 C 759.86 292.909 760.222 292.547 760.222 292.1 L 760.222 287.096 C 760.222 282.537 756.949 278.737 752.441 278.061 L 749.333 277.595 L 747.782 277.362 C 747.584 277.333 747.436 277.16 747.436 276.96 L 747.436 274.865 L 747.436 274.193 C 748.038 273.779 748.611 273.317 749.142 272.806 L 750.74 272.286 L 750.831 272.25 C 753.688 270.923 755.921 268.735 757.119 266.089 C 757.916 264.329 758.309 262.711 758.32 261.144 C 758.367 254.803 756.651 250.11 753.219 247.196 C 752.703 246.758 752.167 246.386 751.624 246.056 C 751.523 245.521 751.242 245.054 750.85 244.705 C 750.85 244.7 750.852 244.694 750.852 244.689 C 750.852 244.422 750.822 244.161 750.779 243.904 C 755.027 247.148 758.096 252.433 759.213 258.649 L 762.659 277.83 C 761.705 278.913 761.117 280.303 761.071 281.832 L 760.865 292.083 C 760.856 292.53 761.21 292.899 761.657 292.909 C 761.662 292.909 761.668 292.909 761.673 292.909 C 762.112 292.909 762.473 292.557 762.482 292.117 L 762.512 290.608 L 762.688 281.873 C 762.706 281.263 762.844 280.683 763.076 280.15 C 763.371 279.469 763.833 278.878 764.404 278.399 C 765.135 277.785 766.046 277.359 767.078 277.232 L 768.932 277.004 L 768.955 277.426 C 768.973 277.765 769.205 278.041 769.52 278.142 C 769.559 278.154 769.594 278.175 769.635 278.181 L 770.31 278.289 L 768.38 280.171 L 768.078 280.465 C 767.898 280.641 767.82 280.885 767.844 281.124 C 767.854 281.223 767.876 281.321 767.923 281.413 L 773.578 292.418 C 773.711 292.676 773.971 292.843 774.26 292.856 L 775.379 292.908 C 775.391 292.909 775.403 292.909 775.416 292.909 C 775.642 292.909 775.857 292.815 776.011 292.647 C 776.172 292.472 776.248 292.233 776.218 291.996 L 774.083 275.526 L 778.899 277.592 C 779.157 277.703 779.434 277.758 779.711 277.758 C 779.988 277.758 780.265 277.703 780.522 277.592 L 785.339 275.526 L 783.204 291.996 C 783.174 292.233 783.25 292.472 783.412 292.647 C 783.565 292.815 783.781 292.909 784.006 292.909 C 784.019 292.909 784.031 292.909 784.044 292.908 L 785.162 292.856 C 785.452 292.843 785.711 292.676 785.844 292.418 L 791.499 281.413 C 791.546 281.321 791.569 281.223 791.578 281.124 C 791.602 280.885 791.524 280.641 791.344 280.465 L 791.043 280.171 L 789.112 278.289 L 789.787 278.181 C 789.828 278.175 789.863 278.154 789.902 278.142 C 790.217 278.041 790.449 277.765 790.467 277.426 L 790.49 277.004 L 792.344 277.232 C 794.815 277.536 796.662 279.488 796.734 281.865 L 796.91 290.608 L 796.94 292.117 C 796.949 292.557 797.31 292.909 797.749 292.909 C 797.754 292.909 797.76 292.909 797.766 292.909 C 798.212 292.899 798.566 292.53 798.558 292.083 L 798.351 281.824 Z  M 751.281 270.178 C 751.998 269.044 752.556 267.806 752.916 266.51 C 754.153 266.328 755.358 265.322 755.786 264.229 C 756.041 263.577 756.012 262.867 755.702 262.233 C 755.378 261.569 754.767 261.06 754.021 260.8 C 754.161 259.999 754.295 259.216 754.413 258.517 C 754.479 258.128 754.37 257.733 754.115 257.432 C 753.863 257.135 753.496 256.965 753.108 256.965 C 753.088 256.968 753.066 256.965 753.045 256.965 C 748.535 256.965 745.333 254.275 744.164 253.115 C 743.895 252.849 743.532 252.702 743.148 252.727 C 742.777 252.747 742.43 252.923 742.197 253.21 C 742.197 253.21 742.197 253.211 742.197 253.211 C 739.23 256.863 734.198 257.084 732.174 257.001 C 731.761 256.988 731.385 257.15 731.12 257.453 C 730.855 257.754 730.742 258.155 730.809 258.551 C 730.912 259.162 731.047 259.953 731.195 260.802 C 730.451 261.063 729.842 261.571 729.52 262.233 C 729.21 262.867 729.18 263.577 729.436 264.229 C 729.863 265.32 731.064 266.326 732.3 266.51 C 732.643 267.745 733.169 268.927 733.839 270.018 C 731.616 268.619 729.96 266.554 729.22 264.207 C 728.744 262.697 728.495 261.211 728.519 260.024 C 728.628 254.673 730.102 250.738 732.9 248.329 C 733.205 248.066 733.52 247.837 733.837 247.623 C 734.242 248.396 735.043 248.93 735.975 248.93 C 736.162 248.93 736.343 248.904 736.518 248.864 C 736.817 248.795 737.096 248.674 737.341 248.505 C 737.566 248.351 737.759 248.156 737.92 247.937 C 738.032 247.786 738.132 247.626 738.206 247.451 C 738.535 247.617 738.9 247.72 739.293 247.72 C 740.104 247.72 740.82 247.315 741.26 246.701 C 741.646 246.962 742.111 247.114 742.611 247.114 C 743.111 247.114 743.576 246.962 743.962 246.701 C 744.402 247.315 745.117 247.72 745.929 247.72 C 746.321 247.72 746.687 247.617 747.015 247.451 C 747.089 247.626 747.189 247.786 747.301 247.937 C 747.463 248.156 747.656 248.351 747.881 248.505 C 748.126 248.674 748.405 248.795 748.704 248.864 C 748.879 248.904 749.059 248.93 749.247 248.93 C 750.119 248.93 750.878 248.463 751.305 247.77 C 751.603 247.975 751.897 248.195 752.183 248.438 C 755.226 251.029 756.746 255.299 756.703 261.132 C 756.693 262.469 756.347 263.872 755.646 265.422 C 754.77 267.356 753.24 269.008 751.281 270.178 Z  M 746.421 272.934 C 746.287 273.023 746.151 273.106 746.015 273.189 C 745.517 273.492 745.001 273.759 744.465 273.974 C 743.285 274.45 741.931 274.45 740.75 273.974 C 739.593 273.509 738.518 272.825 737.565 271.983 C 735.628 270.272 734.204 267.901 733.675 265.325 C 733.295 263.473 732.773 260.464 732.462 258.627 C 734.874 258.665 739.971 258.264 743.245 254.477 C 744.683 255.84 748.061 258.476 752.762 258.58 C 752.396 260.738 751.906 263.546 751.541 265.325 C 751.004 267.94 749.545 270.346 747.562 272.063 C 747.198 272.378 746.817 272.669 746.421 272.934 Z  M 753.734 262.428 C 753.963 262.555 754.146 262.731 754.248 262.942 C 754.326 263.1 754.394 263.349 754.28 263.639 C 754.13 264.023 753.742 264.423 753.317 264.675 C 753.45 263.986 753.592 263.22 753.734 262.428 Z  M 731.898 264.675 C 731.476 264.422 731.091 264.022 730.941 263.639 C 730.828 263.349 730.896 263.1 730.973 262.942 C 731.075 262.733 731.256 262.558 731.483 262.431 C 731.623 263.21 731.764 263.98 731.898 264.675 Z  M 745.123 245.297 C 745.123 245.136 745.182 244.995 745.264 244.869 C 745.407 244.647 745.645 244.491 745.929 244.491 C 746.292 244.491 746.587 244.737 746.688 245.067 C 746.71 245.141 746.734 245.215 746.734 245.297 C 746.734 245.519 746.643 245.721 746.497 245.867 C 746.351 246.012 746.15 246.102 745.929 246.102 C 745.63 246.102 745.378 245.931 745.239 245.688 C 745.172 245.57 745.123 245.442 745.123 245.297 Z  M 743.416 244.691 C 743.416 244.729 743.4 244.761 743.395 244.797 C 743.341 245.189 743.017 245.497 742.611 245.497 C 742.239 245.497 741.939 245.239 741.847 244.896 C 741.829 244.829 741.805 244.764 741.805 244.691 C 741.805 244.422 741.946 244.195 742.15 244.049 C 742.282 243.954 742.436 243.886 742.611 243.886 C 742.751 243.886 742.877 243.932 742.992 243.995 C 743.241 244.132 743.416 244.388 743.416 244.691 Z  M 739.293 244.491 C 739.585 244.491 739.83 244.656 739.971 244.889 C 740.045 245.011 740.098 245.145 740.098 245.297 C 740.098 245.448 740.045 245.582 739.972 245.704 C 739.831 245.938 739.585 246.102 739.293 246.102 C 739.051 246.102 738.84 245.989 738.692 245.819 C 738.569 245.678 738.487 245.498 738.487 245.297 C 738.487 245.198 738.511 245.105 738.544 245.017 C 738.658 244.712 738.948 244.491 739.293 244.491 Z  M 736.092 247.289 C 736.052 247.295 736.016 247.313 735.975 247.313 C 735.644 247.313 735.361 247.112 735.237 246.827 C 735.194 246.729 735.169 246.621 735.169 246.508 C 735.169 246.294 735.256 246.102 735.392 245.958 C 735.539 245.802 735.744 245.702 735.975 245.702 C 736.044 245.702 736.105 245.725 736.169 245.741 C 736.433 245.809 736.642 245.997 736.729 246.253 C 736.756 246.334 736.78 246.417 736.78 246.508 C 736.78 246.607 736.757 246.701 736.723 246.789 C 736.622 247.057 736.383 247.245 736.092 247.289 Z  M 750.052 246.508 C 750.052 246.679 749.987 246.829 749.895 246.96 C 749.749 247.168 749.519 247.313 749.247 247.313 C 749.205 247.313 749.169 247.295 749.129 247.289 C 748.839 247.245 748.599 247.057 748.498 246.789 C 748.465 246.701 748.441 246.607 748.441 246.508 C 748.441 246.46 748.46 246.419 748.468 246.373 C 748.523 246.061 748.749 245.818 749.053 245.741 C 749.068 245.737 749.083 245.735 749.098 245.732 C 749.148 245.722 749.194 245.702 749.247 245.702 C 749.477 245.702 749.682 245.802 749.829 245.957 C 749.858 245.988 749.876 246.028 749.9 246.063 C 749.989 246.192 750.052 246.34 750.052 246.508 Z  M 749.172 244.092 C 748.808 244.103 748.467 244.198 748.16 244.354 C 747.792 243.485 746.93 242.874 745.929 242.874 C 745.429 242.874 744.964 243.026 744.577 243.287 C 744.137 242.673 743.422 242.269 742.611 242.269 C 741.799 242.269 741.084 242.673 740.644 243.287 C 740.258 243.026 739.793 242.874 739.293 242.874 C 738.291 242.874 737.43 243.485 737.061 244.354 C 736.754 244.198 736.414 244.103 736.049 244.092 C 736.171 243.445 736.486 242.841 736.953 242.306 C 737.055 242.189 737.165 242.075 737.281 241.965 C 738.488 240.826 740.425 240.083 742.611 240.083 C 744.524 240.083 746.246 240.654 747.456 241.559 C 747.762 241.788 748.034 242.038 748.269 242.306 C 748.736 242.841 749.051 243.445 749.172 244.092 Z  M 753.384 283.424 L 748.454 284.761 C 744.632 285.797 740.59 285.795 736.768 284.761 L 731.864 283.431 L 728.22 282.444 C 729.366 280.985 731.047 279.957 733.021 279.66 L 734.671 279.413 L 737.68 278.962 C 738.662 278.815 739.403 277.954 739.403 276.96 L 739.403 275.145 C 739.648 275.264 739.895 275.374 740.147 275.475 C 740.94 275.794 741.774 275.954 742.608 275.954 C 743.442 275.954 744.276 275.794 745.069 275.475 C 745.322 275.373 745.572 275.262 745.818 275.142 L 745.818 276.96 C 745.818 277.954 746.559 278.815 747.543 278.962 L 750.602 279.421 L 752.201 279.66 C 754.175 279.957 755.856 280.985 757.002 282.443 L 753.384 283.424 Z  M 779.538 276.106 L 774.93 274.13 L 775.075 271.09 C 776.474 271.875 778.038 272.352 779.711 272.352 C 781.384 272.352 782.948 271.876 784.348 271.092 L 784.492 274.13 L 779.884 276.107 C 779.777 276.152 779.644 276.151 779.538 276.106 Z  M 772.015 241.026 C 772.905 240.328 774.01 239.961 775.167 239.961 C 775.705 239.961 776.256 240.041 776.799 240.204 C 776.923 240.24 777.052 240.246 777.18 240.221 L 779.422 239.787 C 781.69 239.347 783.994 239.658 786.082 240.679 L 786.113 240.695 C 786.116 240.696 786.117 240.697 786.12 240.698 C 789.238 242.225 791.152 245.479 791.227 248.988 C 791.246 249.866 791.155 250.759 790.933 251.646 L 790.336 253.948 L 790.213 254.421 C 790.022 253.905 789.816 253.439 789.602 253.003 C 788.535 250.829 787.212 249.602 785.904 248.948 C 785.003 248.498 784.11 248.313 783.313 248.274 C 782.899 248.252 782.471 248.257 782.041 248.269 C 780.595 248.301 779.238 247.963 778.069 247.277 C 777.974 247.221 777.88 247.17 777.783 247.122 C 776.786 246.619 775.64 246.558 774.56 246.95 C 773.566 247.311 772.756 248.035 772.252 248.948 C 772.186 249.068 772.106 249.18 772.051 249.306 L 771.587 250.38 C 771.335 250.774 770.855 251.44 770.465 251.98 C 770.284 252.231 770.12 252.458 769.979 252.661 L 769.814 252.92 L 769.095 254.054 L 768.646 254.762 L 768.424 253.476 C 768.164 251.97 768.133 250.452 768.305 248.979 C 768.57 246.703 769.329 244.537 770.553 242.711 C 771.05 241.969 771.555 241.386 772.015 241.026 Z  M 770.446 260.684 L 770.393 260.037 L 770.269 258.517 L 770.095 256.37 L 770.032 255.596 L 771.324 253.559 C 771.44 253.393 771.6 253.171 771.777 252.926 C 772.219 252.313 772.721 251.618 772.99 251.189 C 773.011 251.154 773.031 251.117 773.047 251.08 L 773.535 249.947 C 773.705 249.555 773.974 249.219 774.301 248.948 C 774.542 248.748 774.811 248.579 775.112 248.47 C 775.769 248.233 776.46 248.266 777.056 248.565 C 777.122 248.599 777.188 248.635 777.252 248.672 C 777.431 248.778 777.625 248.856 777.812 248.948 C 779.112 249.588 780.57 249.921 782.084 249.885 C 782.474 249.875 782.858 249.871 783.233 249.888 C 785.821 250.017 787.809 252.068 788.982 255.82 C 789.05 256.034 789.178 256.208 789.33 256.357 L 789.329 256.369 L 789.153 258.548 L 789.031 260.046 L 788.974 260.75 C 788.974 261.331 788.904 261.928 788.774 262.528 C 788.317 264.631 787.097 266.752 785.409 268.313 C 785.094 268.605 784.762 268.874 784.416 269.122 C 783.985 269.431 783.534 269.702 783.062 269.931 C 782.023 270.434 780.896 270.735 779.711 270.735 C 778.528 270.735 777.402 270.434 776.363 269.931 C 775.891 269.702 775.44 269.431 775.01 269.122 C 774.665 268.874 774.334 268.605 774.019 268.313 C 772.338 266.756 771.121 264.639 770.657 262.523 C 770.521 261.905 770.446 261.287 770.446 260.684 Z  M 791.763 258.591 C 791.935 258.937 791.962 259.328 791.838 259.691 C 791.645 260.253 791.106 260.852 790.572 261.13 C 790.576 261.025 790.589 260.919 790.589 260.815 L 790.831 257.837 C 790.858 257.844 790.885 257.841 790.911 257.85 C 791.286 257.978 791.588 258.241 791.763 258.591 Z  M 767.585 259.691 C 767.461 259.328 767.487 258.937 767.66 258.591 C 767.834 258.241 768.137 257.978 768.511 257.85 C 768.538 257.841 768.565 257.838 768.593 257.831 L 768.831 260.75 C 768.831 260.877 768.846 261.006 768.851 261.133 C 768.317 260.856 767.778 260.254 767.585 259.691 Z  M 774.564 258.15 C 773.907 258.15 773.375 257.617 773.375 256.96 C 773.375 256.304 773.907 255.771 774.564 255.771 C 775.221 255.771 775.754 256.304 775.754 256.96 C 775.754 257.617 775.221 258.15 774.564 258.15 Z  M 786.047 256.96 C 786.047 257.617 785.515 258.15 784.858 258.15 C 784.201 258.15 783.669 257.617 783.669 256.96 C 783.669 256.304 784.201 255.771 784.858 255.771 C 785.515 255.771 786.047 256.304 786.047 256.96 Z  M 778.295 262.708 C 777.863 262.296 777.664 261.698 777.763 261.11 L 778.338 257.695 C 778.413 257.254 778.83 256.956 779.27 257.031 C 779.711 257.106 780.008 257.523 779.933 257.963 L 779.358 261.378 C 779.344 261.455 779.379 261.507 779.411 261.537 C 779.441 261.566 779.495 261.597 779.572 261.582 L 780.703 261.334 C 781.138 261.239 781.57 261.514 781.666 261.951 C 781.761 262.388 781.486 262.818 781.049 262.914 L 779.918 263.162 C 779.79 263.19 779.661 263.204 779.533 263.204 C 779.077 263.204 778.633 263.03 778.295 262.708 Z  M 783.21 265.021 C 783.36 265.243 783.39 265.525 783.291 265.775 C 782.707 267.239 781.302 268.185 779.711 268.185 C 778.12 268.185 776.715 267.239 776.131 265.775 C 776.032 265.525 776.062 265.243 776.212 265.021 C 776.363 264.799 776.614 264.666 776.882 264.666 L 782.54 264.666 C 782.809 264.666 783.059 264.799 783.21 265.021 Z  M 772.508 255.856 C 772.355 256.053 772.136 256.152 771.911 256.152 C 771.735 256.152 771.555 256.091 771.399 255.971 C 771.046 255.698 771.007 255.161 771.28 254.808 C 771.536 254.478 772.687 253.443 776.764 254.046 C 777.205 254.111 777.511 254.522 777.445 254.964 C 777.38 255.406 776.969 255.708 776.527 255.646 C 773.332 255.174 772.517 255.849 772.508 255.856 Z  M 781.977 254.964 C 781.911 254.522 782.217 254.111 782.658 254.046 C 786.738 253.446 787.886 254.478 788.142 254.808 C 788.415 255.161 788.35 255.669 787.997 255.942 C 787.85 256.056 787.675 256.111 787.503 256.111 C 787.283 256.111 787.065 256.022 786.907 255.85 C 786.823 255.786 785.938 255.197 782.895 255.646 C 782.45 255.708 782.042 255.406 781.977 254.964 Z  M 783.577 282.616 L 780.903 281.129 C 780.827 281.163 780.744 281.184 780.656 281.184 L 778.766 281.184 C 778.678 281.184 778.595 281.163 778.52 281.129 L 775.845 282.616 C 775.657 282.721 775.429 282.72 775.244 282.609 C 775.058 282.5 774.944 282.301 774.944 282.086 L 774.944 277.182 C 774.944 276.968 775.058 276.769 775.244 276.66 C 775.429 276.551 775.657 276.548 775.845 276.653 L 778.52 278.14 C 778.596 278.106 778.678 278.085 778.766 278.085 L 780.656 278.085 C 780.744 278.085 780.827 278.106 780.902 278.14 L 783.577 276.653 C 783.765 276.548 783.994 276.551 784.179 276.66 C 784.364 276.769 784.478 276.968 784.478 277.182 L 784.478 282.086 C 784.478 282.301 784.364 282.5 784.179 282.609 C 784.084 282.665 783.978 282.693 783.871 282.693 C 783.77 282.693 783.668 282.667 783.577 282.616 Z  M 739.871 261.001 C 739.711 261.195 739.479 261.296 739.246 261.296 C 739.065 261.296 738.883 261.236 738.732 261.112 C 737.252 259.895 735.619 261.009 735.55 261.056 C 735.186 261.311 734.682 261.225 734.425 260.861 C 734.168 260.498 734.251 259.997 734.613 259.739 C 735.536 259.077 737.802 258.252 739.76 259.863 C 740.105 260.147 740.154 260.656 739.871 261.001 Z  M 746.489 261.112 C 746.339 261.236 746.157 261.296 745.976 261.296 C 745.743 261.296 745.511 261.195 745.351 261.001 C 745.067 260.656 745.117 260.147 745.462 259.863 C 747.421 258.253 749.686 259.078 750.609 259.739 C 750.972 259.999 751.056 260.504 750.796 260.867 C 750.538 261.229 750.035 261.313 749.671 261.056 C 749.598 261.004 747.966 259.896 746.489 261.112 Z  M 738.296 262.056 C 738.296 262.756 737.729 263.322 737.03 263.322 C 736.331 263.322 735.764 262.756 735.764 262.056 C 735.764 261.357 736.331 260.79 737.03 260.79 C 737.729 260.79 738.296 261.357 738.296 262.056 Z  M 748.191 263.322 C 747.492 263.322 746.925 262.756 746.925 262.056 C 746.925 261.357 747.492 260.79 748.191 260.79 C 748.89 260.79 749.457 261.357 749.457 262.056 C 749.457 262.756 748.89 263.322 748.191 263.322 Z  M 741.529 267.175 C 741.181 266.841 740.99 266.291 741.018 265.704 L 741.224 264.058 C 741.28 263.615 741.683 263.305 742.128 263.357 C 742.571 263.413 742.884 263.818 742.828 264.262 L 742.628 265.844 C 742.627 265.852 742.628 265.86 742.628 265.868 L 743.327 265.806 C 743.782 265.777 744.164 266.096 744.203 266.54 C 744.243 266.985 743.914 267.378 743.469 267.417 L 742.442 267.508 C 742.408 267.511 742.375 267.513 742.341 267.513 C 742.043 267.513 741.758 267.395 741.529 267.175 Z  M 745.372 269.059 C 745.524 269.266 745.568 269.534 745.491 269.779 C 745.131 270.93 744.332 271.745 743.364 272.029 C 743.121 272.1 742.871 272.147 742.611 272.147 C 742.335 272.147 742.069 272.097 741.813 272.017 C 740.865 271.721 740.085 270.912 739.73 269.779 C 739.653 269.534 739.697 269.266 739.85 269.059 C 740.002 268.851 740.244 268.729 740.502 268.729 L 744.72 268.729 C 744.977 268.729 745.219 268.851 745.372 269.059 Z  M 767.267 230.46 L 769.069 229.932 C 769.498 229.806 769.947 230.052 770.072 230.48 L 770.6 232.282 C 770.726 232.711 770.48 233.16 770.052 233.286 L 768.25 233.814 C 767.821 233.939 767.372 233.694 767.246 233.265 L 766.719 231.463 C 766.593 231.034 766.839 230.585 767.267 230.46 Z  M 756.63 231.643 L 757.298 230.509 C 757.524 230.124 758.02 229.996 758.405 230.222 L 759.539 230.889 C 759.924 231.116 760.052 231.611 759.826 231.996 L 759.159 233.13 C 758.932 233.515 758.436 233.644 758.052 233.417 L 756.917 232.75 C 756.532 232.524 756.404 232.028 756.63 231.643 Z  M 753.089 222.853 C 752.287 222.186 752.177 220.995 752.844 220.192 C 753.511 219.39 754.702 219.28 755.505 219.947 C 756.307 220.614 756.417 221.805 755.75 222.608 C 755.083 223.411 753.892 223.52 753.089 222.853 Z  M 765.06 240.539 C 765.808 241.16 765.91 242.269 765.289 243.016 C 764.668 243.764 763.559 243.866 762.812 243.245 C 762.064 242.624 761.962 241.515 762.583 240.767 C 763.204 240.02 764.313 239.918 765.06 240.539 Z  M 752.026 236.558 C 751.479 237.259 750.466 237.385 749.765 236.838 C 749.063 236.291 748.937 235.279 749.484 234.577 C 750.031 233.875 751.044 233.75 751.746 234.297 C 752.447 234.844 752.573 235.856 752.026 236.558 Z  M 761.614 225.461 C 762.378 225.433 763.166 225.449 763.951 225.508 C 763.972 225.51 763.992 225.511 764.012 225.511 C 764.28 225.511 764.532 225.378 764.683 225.154 C 766.801 222.013 767.971 219.083 768.258 216.197 C 768.297 215.805 768.048 215.442 767.668 215.337 C 766.826 215.106 765.962 214.919 765.1 214.78 C 764.878 214.746 764.654 214.802 764.478 214.938 C 764.301 215.074 764.188 215.278 764.167 215.499 C 763.909 218.131 762.837 220.989 760.891 224.237 C 760.739 224.491 760.737 224.808 760.888 225.063 C 761.039 225.319 761.303 225.476 761.614 225.461 Z  M 766.562 216.722 C 766.211 219.004 765.236 221.351 763.598 223.865 C 763.393 223.854 763.189 223.845 762.984 223.839 C 764.428 221.211 765.311 218.801 765.666 216.525 C 765.966 216.584 766.265 216.65 766.562 216.722 Z  M 749.472 230.855 C 749.619 231.111 749.889 231.262 750.174 231.262 C 750.248 231.262 750.322 231.251 750.396 231.23 C 751.453 230.928 751.766 230.271 752.018 229.743 C 752.087 229.6 752.16 229.445 752.259 229.279 C 752.401 229.041 752.412 228.747 752.288 228.5 C 750.531 225.008 748.5 222.522 746.079 220.9 C 745.742 220.673 745.289 220.733 745.021 221.038 C 744.409 221.734 743.827 222.47 743.29 223.225 C 743.163 223.404 743.114 223.625 743.154 223.84 C 743.193 224.055 743.318 224.245 743.5 224.366 C 746.128 226.121 747.802 227.941 749.472 230.855 Z  M 750.652 228.854 C 750.619 228.92 750.589 228.984 750.559 229.047 C 750.51 229.15 750.469 229.234 750.432 229.303 C 748.93 226.854 747.314 225.098 745.093 223.503 C 745.31 223.217 745.534 222.936 745.762 222.66 C 747.612 224.064 749.219 226.1 750.652 228.854 Z  M 732.353 225.827 L 727.483 225.5 C 727.372 225.356 727.296 225.188 727.299 225.003 C 727.301 224.852 727.359 224.714 727.439 224.589 L 731.45 224.858 C 731.758 225.173 732.061 225.495 732.353 225.827 Z  M 730.554 223.987 L 728.288 223.835 L 728.862 223.375 C 729.167 223.131 729.602 223.139 729.896 223.393 C 730.12 223.585 730.337 223.786 730.554 223.987 Z  M 735.687 231.207 L 732.16 230.971 C 731.958 230.65 731.748 230.333 731.53 230.02 L 735.492 230.286 C 735.543 230.378 735.598 230.468 735.648 230.561 C 735.758 230.767 735.76 230.999 735.687 231.207 Z  M 735.006 229.443 L 730.906 229.168 C 730.656 228.841 730.398 228.521 730.131 228.208 L 734.402 228.493 C 734.611 228.806 734.812 229.122 735.006 229.443 Z  M 734.949 231.969 L 734.181 232.585 C 734.036 232.701 733.857 232.763 733.674 232.763 C 733.621 232.763 733.567 232.758 733.513 232.747 C 733.278 232.699 733.076 232.549 732.962 232.337 C 732.868 232.161 732.765 231.989 732.666 231.816 L 734.949 231.969 Z  M 733.81 227.643 L 729.361 227.345 C 729.049 227.012 728.73 226.686 728.4 226.372 L 733.075 226.686 C 733.327 226.999 733.573 227.318 733.81 227.643 Z  M 782.583 228.04 C 782.288 228.34 781.996 228.636 781.69 228.949 L 778.795 228.958 C 778.768 228.913 778.746 228.866 778.717 228.821 C 778.566 228.586 778.555 228.297 778.667 228.052 L 782.583 228.04 Z  M 779.19 229.766 L 780.897 229.76 L 780.551 230.114 C 780.398 230.27 780.189 230.356 779.974 230.356 C 779.917 230.356 779.858 230.349 779.8 230.337 C 779.528 230.277 779.306 230.081 779.212 229.818 C 779.206 229.801 779.196 229.783 779.19 229.766 Z  M 786.577 222.073 L 784.29 222.08 C 784.478 221.932 784.666 221.783 784.859 221.643 C 785.103 221.468 785.425 221.442 785.693 221.576 C 785.998 221.728 786.292 221.895 786.577 222.073 Z  M 784.318 226.319 C 784.013 226.611 783.703 226.917 783.39 227.229 L 779.299 227.242 C 779.561 226.929 779.817 226.626 780.068 226.332 L 784.318 226.319 Z  M 787.58 223.18 C 787.578 223.416 787.47 223.634 787.293 223.786 L 782.371 223.801 C 782.686 223.485 783.001 223.179 783.32 222.891 L 787.518 222.878 C 787.556 222.974 787.58 223.075 787.58 223.18 Z  M 786.266 224.598 C 785.912 224.885 785.557 225.19 785.204 225.508 L 780.771 225.521 C 781.047 225.207 781.321 224.904 781.592 224.612 L 786.266 224.598 Z  M 773.616 223.344 C 772.869 222.723 772.767 221.614 773.388 220.866 C 774.009 220.119 775.118 220.017 775.865 220.638 C 776.315 221.011 776.526 221.562 776.492 222.104 C 776.475 222.362 776.404 222.616 776.273 222.85 C 776.221 222.942 776.163 223.031 776.094 223.115 C 775.473 223.862 774.364 223.965 773.616 223.344 Z " fill="rgb(228,214,119)"/></g></svg>