<?xml version="1.0" standalone="no"?><!-- Generator: Gravit.io --><svg xmlns="http://www.w3.org/2000/svg" xmlns:xlink="http://www.w3.org/1999/xlink" style="isolation:isolate" viewBox="19.255 11 87.43 94.407" width="87.43" height="94.407"><g id="noun_565337_cc"><path d=" M 104.89 59.44 C 106.32 58.54 106.65 57.69 106.66 57.1 C 106.67 56.51 106.26 55.48 104.4 54.6 C 105.48 53.92 105.93 53.33 105.8 52.78 C 105.67 52.23 104.98 51.9 103.65 51.78 C 104.57 50.62 104.85 49.66 104.49 48.93 C 104.13 48.2 103.29 47.87 101.93 47.82 C 102.74 46.43 102.88 45.42 102.35 44.82 C 101.82 44.22 101.01 44.15 99.74 44.39 C 100.23 43 100.16 42.07 99.54 41.62 C 98.92 41.17 98.01 41.27 96.71 41.83 C 96.84 40.64 96.58 39.89 95.94 39.6 C 95.3 39.31 94.09 39.6 92.64 40.68 C 92.236 39.773 91.393 39.138 90.41 39 C 88.82 38.79 86.83 39.78 84.63 41.88 C 81.69 41.83 81 43.58 80.09 46 C 78.94 49 77.2 53.47 70.09 58.4 C 68.623 59.513 67.101 60.551 65.53 61.51 C 65.883 59.682 66.375 57.884 67 56.13 C 68.76 49.45 72.47 46.24 75.18 43.9 C 77.58 41.82 79.49 40.17 78.47 37.27 C 79.76 33.79 79.93 31.03 78.96 29.27 C 78.346 28.168 77.218 27.45 75.96 27.36 C 76.45 25.86 76.46 24.96 75.96 24.52 C 75.46 24.08 74.9 24.27 73.96 24.94 C 74.01 23.7 73.77 22.94 73.23 22.55 C 72.69 22.16 71.73 22.43 70.58 23.46 C 70.17 21.82 69.46 21.25 68.9 21.06 C 68.34 20.87 67.24 20.94 65.82 22.44 C 65.5 21.2 65.08 20.6 64.52 20.55 C 63.96 20.5 63.51 21 63 22.27 C 62.18 21.03 61.36 20.47 60.55 20.59 C 59.74 20.71 59.17 21.4 58.7 22.68 C 57.63 21.48 56.7 21.03 55.96 21.35 C 55.22 21.67 54.91 22.41 54.75 23.7 C 53.58 22.81 52.67 22.58 52.05 23.04 C 51.43 23.5 51.24 24.39 51.37 25.79 C 50.28 25.3 49.49 25.31 49.01 25.79 C 48.53 26.27 48.45 27.55 49.01 29.27 C 48.037 29.386 47.189 29.989 46.76 30.87 C 46.07 32.31 46.4 34.52 47.76 37.25 C 46.76 40.01 48.23 41.25 50.23 42.83 C 52.7 44.83 56.44 47.89 58.93 56.18 C 59.535 57.919 60.053 59.688 60.48 61.48 C 58.858 60.578 57.307 59.556 55.84 58.42 C 50 54.72 48.08 50.2 46.69 46.9 C 45.46 43.97 44.48 41.65 41.4 41.73 C 38.49 39.43 35.92 38.41 33.94 38.79 C 32.719 39.027 31.696 39.855 31.21 41 C 29.94 40.07 29.08 39.78 28.52 40.09 C 27.96 40.4 27.95 41.02 28.3 42.09 C 27.13 41.66 26.3 41.64 25.8 42.09 C 25.3 42.54 25.22 43.49 25.8 44.89 C 24.12 44.78 23.35 45.27 23 45.74 C 22.65 46.21 22.37 47.28 23.36 49.09 C 22.09 49.01 21.36 49.22 21.16 49.74 C 20.96 50.26 21.3 50.93 22.32 51.79 C 20.89 52.19 20.1 52.79 19.96 53.6 C 19.82 54.41 20.31 55.16 21.37 56 C 19.9 56.65 19.19 57.38 19.26 58.19 C 19.33 59 19.94 59.52 21.12 60.07 C 19.91 60.91 19.42 61.7 19.65 62.43 C 19.88 63.16 20.65 63.62 22.06 63.93 C 21.25 64.82 21.06 65.57 21.37 66.19 C 21.68 66.81 22.87 67.26 24.68 67.26 C 24.492 68.221 24.804 69.211 25.51 69.89 C 26.67 70.99 28.87 71.36 31.88 70.96 C 34.21 72.75 35.78 71.73 37.94 70.34 C 40.62 68.61 44.67 66 53.32 66.19 C 55.162 66.154 57.004 66.21 58.84 66.36 C 57.48 67.625 56.026 68.785 54.49 69.83 C 49.14 74.2 44.25 74.61 40.68 74.92 C 37.51 75.19 35 75.4 34.12 78.35 C 31.03 80.4 29.27 82.54 29.02 84.54 C 28.867 85.78 29.344 87.014 30.29 87.83 C 29.01 88.75 28.47 89.48 28.6 90.1 C 28.73 90.72 29.31 90.93 30.47 90.94 C 29.7 91.94 29.47 92.71 29.66 93.31 C 29.85 93.91 30.81 94.31 32.33 94.13 C 31.7 95.7 31.94 96.58 32.27 97.06 C 32.6 97.54 33.54 98.13 35.57 97.75 C 35.1 98.94 35.08 99.68 35.51 100.05 C 35.94 100.42 36.69 100.28 37.82 99.58 C 37.76 101.06 38.09 102 38.82 102.38 C 39.55 102.76 40.42 102.53 41.54 101.78 C 41.7 103.38 42.18 104.28 42.97 104.47 C 43.76 104.66 44.45 104.23 45.33 103.28 C 45.75 104.69 46.33 105.4 47.13 105.4 C 47.93 105.4 48.58 104.79 49.3 103.57 C 49.89 104.57 50.54 105.06 51.23 104.92 C 51.92 104.78 52.72 103.83 53.23 102.1 C 54.09 102.57 55.13 102.57 55.99 102.1 C 57.4 101.34 58.43 99.36 58.99 96.38 C 61.41 94.72 60.93 92.91 60.27 90.38 C 59.45 87.3 58.27 82.64 61.08 74.47 C 61.634 72.726 62.274 71.01 63 69.33 C 63.797 71.01 64.466 72.749 65 74.53 C 67.5 80.97 66.38 85.75 65.57 89.23 C 64.85 92.32 64.27 94.78 66.81 96.52 C 67.81 100.09 69.29 102.43 71.12 103.28 C 72.251 103.808 73.572 103.737 74.64 103.09 C 75.12 104.59 75.64 105.33 76.28 105.4 C 76.92 105.47 77.28 104.98 77.65 103.88 C 78.34 104.88 79.01 105.42 79.65 105.39 C 80.29 105.36 80.94 104.6 81.26 103.1 C 82.56 104.18 83.47 104.23 84.03 104.1 C 84.59 103.97 85.44 103.22 85.71 101.17 C 86.71 101.98 87.39 102.23 87.88 101.94 C 88.37 101.65 88.47 100.94 88.15 99.6 C 89.54 100.12 90.54 100.09 91.15 99.52 C 91.76 98.95 91.79 98.05 91.42 96.74 C 92.99 97.08 94 96.9 94.42 96.21 C 94.84 95.52 94.65 94.73 94.02 93.6 C 95.49 93.6 96.36 93.28 96.6 92.55 C 96.84 91.82 96.46 90.98 95.53 89.92 C 96.7 89.68 97.33 89.2 97.41 88.5 C 97.49 87.8 96.83 86.75 95.36 85.69 C 96.081 85.024 96.412 84.036 96.24 83.07 C 95.95 81.5 94.39 79.91 91.72 78.46 C 90.89 75.65 89.01 75.54 86.45 75.4 C 83.27 75.22 78.45 74.96 71.57 69.72 C 70.057 68.668 68.599 67.54 67.2 66.34 C 69.041 66.117 70.896 66.033 72.75 66.09 C 79.65 65.7 83.84 68.24 86.91 70.09 C 89.63 71.73 91.79 73.04 94.23 71.17 C 97.93 71.32 100.62 70.63 101.99 69.17 C 102.844 68.257 103.186 66.977 102.9 65.76 C 104.48 65.76 105.34 65.5 105.61 64.92 C 105.88 64.34 105.52 63.83 104.61 63.14 C 105.81 62.81 106.5 62.32 106.66 61.7 C 106.82 61.08 106.21 60.21 104.89 59.44 Z  M 62 63.56 C 61.947 63.489 61.903 63.412 61.87 63.33 C 61.93 63.37 61.978 63.426 62.01 63.49 C 62.01 63.49 62 63.54 62 63.56 Z  M 63 66.82 L 63 66.82 C 63.007 66.88 63.007 66.94 63 67 C 62.966 66.946 62.946 66.884 62.94 66.82 L 63 66.82 Z  M 63.29 65.5 L 63.17 65.55 C 63.005 65.475 62.834 65.411 62.66 65.36 L 62.57 65.26 C 62.583 65.077 62.583 64.893 62.57 64.71 L 62.64 64.6 C 62.82 64.563 62.997 64.512 63.17 64.45 L 63.3 64.45 C 63.393 64.607 63.496 64.757 63.61 64.9 C 63.61 64.9 63.61 64.99 63.61 65.03 C 63.468 65.176 63.338 65.333 63.22 65.5 L 63.29 65.5 Z  M 64.12 63.57 C 64.168 63.5 64.225 63.436 64.29 63.38 C 64.269 63.448 64.231 63.51 64.18 63.56 L 64.12 63.57 Z  M 50.68 42.05 C 48.49 40.27 47.78 39.54 48.59 37.47 C 48.655 37.323 48.655 37.157 48.59 37.01 C 47.37 34.53 46.99 32.53 47.54 31.39 C 47.966 30.625 48.797 30.176 49.67 30.24 C 49.814 30.222 49.939 30.132 50 30 C 50.068 29.851 50.068 29.679 50 29.53 C 49.32 27.73 49.33 26.81 49.57 26.53 C 49.679 26.432 49.824 26.385 49.97 26.4 C 50.587 26.47 51.177 26.69 51.69 27.04 C 51.826 27.143 52.014 27.143 52.15 27.04 C 52.286 26.912 52.347 26.723 52.31 26.54 C 51.95 24.46 52.31 23.99 52.47 23.9 C 52.76 23.69 53.53 23.9 54.81 25.03 C 54.932 25.144 55.113 25.168 55.26 25.09 C 55.412 25 55.507 24.837 55.51 24.66 C 55.51 23.34 55.82 22.49 56.23 22.31 C 56.64 22.13 57.56 22.73 58.52 23.95 C 58.615 24.077 58.776 24.136 58.93 24.1 C 59.088 24.055 59.21 23.929 59.25 23.77 C 59.62 22.45 60.11 21.68 60.63 21.61 C 61.15 21.54 61.96 22.25 62.7 23.61 C 62.779 23.761 62.94 23.851 63.11 23.84 C 63.282 23.812 63.422 23.687 63.47 23.52 C 64.01 21.88 64.47 21.59 64.47 21.57 C 64.47 21.55 64.85 21.72 65.18 23.57 C 65.206 23.744 65.325 23.89 65.49 23.95 C 65.649 24 65.821 23.943 65.92 23.81 C 67.01 22.46 67.99 21.81 68.68 22.07 C 69.37 22.33 69.76 23.53 69.92 24.5 C 69.942 24.666 70.048 24.81 70.2 24.88 C 70.347 24.934 70.513 24.895 70.62 24.78 C 71.83 23.55 72.55 23.3 72.82 23.47 C 73.09 23.64 73.24 24.36 73.01 25.94 C 72.977 26.134 73.054 26.33 73.21 26.45 C 73.36 26.56 73.55 26.45 73.69 26.28 C 74.89 25.28 75.33 25.06 75.41 25.06 L 75.41 25.06 C 75.41 25.06 75.61 25.64 74.9 27.52 C 74.879 27.687 74.914 27.856 75 28 C 75.063 28.144 75.195 28.246 75.35 28.27 C 76.517 28.193 77.628 28.781 78.22 29.79 C 79.04 31.27 78.81 33.86 77.59 37.06 C 77.541 37.192 77.541 37.338 77.59 37.47 C 78.46 39.67 77.25 40.85 74.65 43.09 C 71.85 45.52 68 48.84 66.17 55.79 C 65.437 57.835 64.882 59.94 64.51 62.08 L 64.51 62.08 C 63.69 62.6 63.23 62.97 63.07 63.44 C 63.034 63.435 62.996 63.435 62.96 63.44 L 62.96 63.44 C 62.964 63.39 62.964 63.34 62.96 63.29 C 62.81 62.81 62.32 62.51 61.5 62.06 L 61.37 61.54 C 60.918 59.613 60.368 57.71 59.72 55.84 C 57.12 47.3 53.25 44.14 50.68 42.05 Z  M 53.29 65.32 C 44.35 65.12 40.15 67.83 37.37 69.62 C 35 71.15 34.09 71.62 32.37 70.19 C 32.246 70.091 32.087 70.047 31.93 70.07 C 29.19 70.47 27.18 70.2 26.26 69.33 C 25.663 68.69 25.491 67.761 25.82 66.95 C 25.856 66.807 25.815 66.655 25.71 66.55 C 25.597 66.435 25.441 66.373 25.28 66.38 C 23.36 66.47 22.48 66.18 22.28 65.87 C 22.221 65.736 22.221 65.584 22.28 65.45 C 22.542 64.879 22.94 64.381 23.44 64 C 23.567 63.887 23.604 63.703 23.53 63.55 C 23.453 63.381 23.294 63.264 23.11 63.24 C 21.02 62.94 20.7 62.42 20.65 62.24 C 20.54 61.9 20.95 61.24 22.44 60.36 C 22.584 60.278 22.66 60.113 22.63 59.95 C 22.591 59.778 22.467 59.638 22.3 59.58 C 21.06 59.13 20.3 58.58 20.3 58.17 C 20.3 57.76 21.11 57.03 22.57 56.5 C 22.719 56.45 22.825 56.317 22.84 56.16 C 22.846 55.994 22.762 55.837 22.62 55.75 C 21.48 54.99 20.9 54.29 20.99 53.75 C 21.08 53.21 21.99 52.68 23.52 52.39 C 23.686 52.36 23.819 52.234 23.86 52.07 C 23.887 51.899 23.813 51.728 23.67 51.63 C 22.27 50.63 22.13 50.1 22.14 50.05 C 22.15 50 22.4 49.74 24.24 49.98 C 24.41 50.008 24.581 49.943 24.69 49.81 C 24.785 49.675 24.785 49.495 24.69 49.36 C 23.74 47.9 23.46 46.78 23.89 46.2 C 24.32 45.62 25.61 45.63 26.58 45.78 C 26.746 45.811 26.916 45.754 27.03 45.63 C 27.116 45.5 27.116 45.33 27.03 45.2 C 26.23 43.67 26.22 42.91 26.47 42.7 C 26.72 42.49 27.47 42.57 28.88 43.28 C 29.049 43.383 29.261 43.383 29.43 43.28 C 29.578 43.173 29.628 42.975 29.55 42.81 C 28.93 41.34 29.03 40.92 29.06 40.81 L 29.06 40.81 C 29.06 40.81 29.54 40.76 31.06 42.01 C 31.189 42.115 31.357 42.159 31.52 42.13 C 31.671 42.107 31.797 42.003 31.85 41.86 C 32.126 40.726 33.021 39.846 34.16 39.59 C 35.82 39.27 38.16 40.28 40.87 42.43 C 40.979 42.52 41.118 42.567 41.26 42.56 C 43.62 42.42 44.36 43.93 45.7 47.09 C 47.14 50.51 49.11 55.19 55.15 59.09 C 56.869 60.418 58.699 61.596 60.62 62.61 L 60.62 62.61 C 60.761 63.314 61.143 63.947 61.7 64.4 C 61.7 64.4 61.9 64.47 61.9 64.51 L 61.9 64.51 C 60.9 64.51 61.57 64.51 61.51 64.51 C 60.829 64.626 60.213 64.98 59.77 65.51 L 59.18 65.51 C 57.221 65.348 55.255 65.285 53.29 65.32 L 53.29 65.32 Z  M 61.29 65.53 C 61.21 65.561 61.126 65.581 61.04 65.59 C 61.096 65.548 61.161 65.52 61.23 65.51 L 61.29 65.53 Z  M 60.29 74.33 C 57.29 82.77 58.61 87.6 59.46 90.8 C 60.18 93.53 60.34 94.53 58.46 95.73 C 58.328 95.816 58.237 95.954 58.21 96.11 C 57.74 98.84 56.87 100.67 55.76 101.28 C 54.966 101.65 54.03 101.525 53.36 100.96 C 53.23 100.885 53.07 100.885 52.94 100.96 C 52.793 101.031 52.684 101.163 52.64 101.32 C 52.13 103.18 51.58 103.92 51.23 103.99 C 51.084 104.005 50.939 103.958 50.83 103.86 C 50.378 103.438 50.035 102.913 49.83 102.33 C 49.764 102.172 49.6 102.078 49.43 102.1 C 49.246 102.124 49.087 102.241 49.01 102.41 C 48.08 104.31 47.49 104.41 47.33 104.41 C 46.97 104.41 46.46 103.81 46.09 102.12 C 46.057 101.957 45.925 101.832 45.76 101.81 C 45.586 101.795 45.416 101.871 45.31 102.01 C 44.5 103.01 43.78 103.59 43.31 103.49 C 42.84 103.39 42.48 102.37 42.42 100.81 C 42.417 100.653 42.324 100.513 42.18 100.45 C 42.026 100.395 41.855 100.425 41.73 100.53 C 40.66 101.38 39.81 101.71 39.34 101.47 C 38.87 101.23 38.64 100.17 38.83 98.64 C 38.851 98.473 38.773 98.309 38.63 98.22 C 38.483 98.128 38.297 98.128 38.15 98.22 C 36.75 99.22 36.22 99.22 36.15 99.22 C 36.08 99.22 35.93 98.88 36.73 97.22 C 36.816 97.071 36.816 96.889 36.73 96.74 C 36.631 96.607 36.459 96.55 36.3 96.6 C 34.62 97.05 33.47 96.97 33.05 96.38 C 32.63 95.79 33.05 94.56 33.48 93.69 C 33.56 93.544 33.56 93.366 33.48 93.22 C 33.394 93.087 33.235 93.02 33.08 93.05 C 31.38 93.33 30.65 93.11 30.53 92.81 C 30.41 92.51 30.71 91.81 31.83 90.7 C 31.972 90.575 32.036 90.385 32 90.2 C 31.944 90.026 31.771 89.917 31.59 89.94 C 30 90.08 29.59 89.85 29.59 89.8 L 29.59 89.8 C 29.59 89.8 29.69 89.33 31.37 88.23 C 31.507 88.139 31.598 87.993 31.62 87.83 C 31.647 87.679 31.589 87.526 31.47 87.43 C 30.463 86.822 29.892 85.692 30 84.52 C 30.21 82.84 31.91 80.89 34.78 79.02 C 34.898 78.943 34.983 78.826 35.02 78.69 C 35.61 76.4 37.28 76.16 40.7 75.87 C 44.39 75.56 49.45 75.13 55.02 70.58 C 56.801 69.355 58.474 67.98 60.02 66.47 L 60.02 66.47 C 60.696 66.614 61.4 66.526 62.02 66.22 C 62.05 66.245 62.084 66.265 62.12 66.28 L 62.12 66.28 C 62.093 66.325 62.069 66.371 62.05 66.42 C 61.89 66.9 62.11 67.42 62.51 68.27 L 62.31 68.77 C 61.548 70.591 60.88 72.45 60.31 74.34 L 60.29 74.33 Z  M 86.43 76.33 C 89.25 76.49 90.25 76.65 90.81 78.81 C 90.849 78.964 90.951 79.094 91.09 79.17 C 93.54 80.46 95.01 81.86 95.24 83.1 C 95.358 83.962 94.969 84.815 94.24 85.29 C 94.128 85.386 94.075 85.534 94.1 85.68 C 94.124 85.84 94.215 85.981 94.35 86.07 C 95.96 87.13 96.49 87.88 96.45 88.23 C 96.421 88.372 96.334 88.495 96.21 88.57 C 95.669 88.875 95.061 89.043 94.44 89.06 C 94.27 89.075 94.131 89.202 94.1 89.37 C 94.063 89.553 94.124 89.742 94.26 89.87 C 95.78 91.34 95.73 91.95 95.68 92.1 C 95.57 92.44 94.84 92.74 93.12 92.57 C 92.957 92.554 92.801 92.642 92.73 92.79 C 92.658 92.954 92.677 93.144 92.78 93.29 C 93.52 94.39 93.78 95.23 93.58 95.61 C 93.38 95.99 92.26 96.05 90.76 95.61 C 90.609 95.563 90.444 95.61 90.34 95.73 C 90.238 95.861 90.216 96.037 90.28 96.19 C 90.76 97.47 90.81 98.38 90.43 98.76 C 90.05 99.14 88.98 99.03 87.59 98.37 C 87.44 98.296 87.261 98.315 87.13 98.42 C 87.009 98.544 86.97 98.727 87.03 98.89 C 87.56 100.54 87.37 101.03 87.34 101.07 C 87.31 101.11 86.95 101.17 85.6 99.89 C 85.479 99.764 85.299 99.715 85.13 99.76 C 84.969 99.812 84.86 99.961 84.86 100.13 C 84.77 101.87 84.34 102.94 83.65 103.13 C 82.96 103.32 81.92 102.58 81.22 101.89 C 81.104 101.77 80.934 101.717 80.77 101.75 C 80.615 101.79 80.5 101.921 80.48 102.08 C 80.22 103.79 79.79 104.41 79.48 104.43 C 79.17 104.45 78.62 103.96 77.87 102.54 C 77.782 102.366 77.605 102.255 77.41 102.25 C 77.228 102.252 77.073 102.382 77.04 102.56 C 76.68 104.11 76.35 104.39 76.28 104.44 L 76.28 104.44 C 76.28 104.44 75.86 104.2 75.33 102.26 C 75.286 102.103 75.177 101.971 75.03 101.9 C 74.9 101.825 74.74 101.825 74.61 101.9 C 73.721 102.655 72.481 102.841 71.41 102.38 C 69.88 101.66 68.55 99.44 67.65 96.14 C 67.613 96.004 67.528 95.887 67.41 95.81 C 65.41 94.54 65.71 92.88 66.49 89.54 C 67.33 85.93 68.49 80.98 65.89 74.29 C 65.282 72.206 64.496 70.179 63.54 68.23 L 63.54 68.23 C 63.874 67.642 64.004 66.96 63.91 66.29 C 63.91 66.29 63.98 66.29 64 66.22 L 64 66.22 C 64.033 66.26 64.07 66.297 64.11 66.33 C 64.52 66.62 65.11 66.59 66.01 66.47 L 66.42 66.82 C 67.884 68.107 69.413 69.318 71 70.45 C 78.16 75.87 83.15 76.14 86.45 76.33 L 86.43 76.33 Z  M 64.69 65.58 C 64.767 65.599 64.842 65.629 64.91 65.67 C 64.844 65.687 64.776 65.687 64.71 65.67 L 64.69 65.58 Z  M 105.61 61.58 C 105.54 61.86 104.89 62.26 103.32 62.53 C 103.126 62.56 102.964 62.695 102.9 62.88 C 102.844 63.054 102.92 63.243 103.08 63.33 C 104.45 64.15 104.61 64.55 104.64 64.63 L 104.64 64.63 C 104.64 64.63 104.28 64.95 102.28 64.86 C 102.114 64.853 101.953 64.919 101.84 65.04 C 101.732 65.147 101.69 65.303 101.73 65.45 C 102.17 66.53 101.961 67.765 101.19 68.64 C 100.03 69.87 97.51 70.46 94.09 70.29 C 93.948 70.283 93.809 70.33 93.7 70.42 C 91.88 71.92 90.39 71.14 87.45 69.36 C 84.28 67.44 79.93 64.82 72.76 65.22 C 70.59 65.153 68.419 65.274 66.27 65.58 L 66.27 65.58 C 65.812 65.085 65.204 64.755 64.54 64.64 C 64.546 64.6 64.546 64.56 64.54 64.52 L 64.54 64.52 C 64.589 64.501 64.635 64.477 64.68 64.45 C 65.09 64.16 65.23 63.6 65.4 62.68 L 65.86 62.4 C 67.52 61.35 69.126 60.215 70.67 59 C 78 53.94 79.82 49.28 81 46.2 C 82 43.57 82.49 42.66 84.71 42.8 C 84.869 42.809 85.025 42.751 85.14 42.64 C 87.14 40.71 88.91 39.74 90.14 39.9 C 91.002 40.066 91.689 40.718 91.9 41.57 C 91.956 41.709 92.081 41.809 92.23 41.83 C 92.39 41.856 92.554 41.812 92.68 41.71 C 94.18 40.5 95.06 40.23 95.39 40.38 C 95.518 40.453 95.608 40.576 95.64 40.72 C 95.764 41.331 95.737 41.962 95.56 42.56 C 95.521 42.727 95.599 42.899 95.75 42.98 C 95.912 43.069 96.108 43.069 96.27 42.98 C 98.14 41.98 98.7 42.22 98.83 42.32 C 99.12 42.53 99.18 43.32 98.48 44.9 C 98.412 45.049 98.444 45.225 98.56 45.34 C 98.695 45.457 98.88 45.495 99.05 45.44 C 100.32 45.08 101.21 45.06 101.5 45.44 C 101.79 45.82 101.5 46.83 100.65 48.13 C 100.562 48.263 100.562 48.437 100.65 48.57 C 100.743 48.708 100.904 48.784 101.07 48.77 C 102.44 48.71 103.32 48.94 103.56 49.42 C 103.8 49.9 103.37 50.88 102.31 52.01 C 102.192 52.132 102.156 52.312 102.22 52.47 C 102.3 52.622 102.459 52.715 102.63 52.71 C 104.36 52.71 104.77 53.04 104.8 53.09 C 104.83 53.14 104.8 53.49 103.14 54.38 C 102.986 54.46 102.886 54.616 102.88 54.79 C 102.88 54.959 102.989 55.108 103.15 55.16 C 104.77 55.78 105.66 56.52 105.65 57.24 C 105.64 57.96 104.59 58.72 103.72 59.17 C 103.565 59.242 103.459 59.39 103.44 59.56 C 103.432 59.716 103.519 59.862 103.66 59.93 C 105.23 60.62 105.69 61.23 105.61 61.54 L 105.61 61.58 Z " fill="rgb(255,255,0)"/><path d=" M 61.45 65.25 C 61.45 65.25 58.58 54.43 62.73 47.36 C 66.88 40.29 74.6 32.9 77.26 24.55 C 78.72 20 75.1 12.13 75.1 12.13 C 75.1 12.13 77.96 18.24 78.55 21.23 C 79.14 24.22 78.25 27.87 75.88 32.58 C 72.97 38.37 67.18 44.58 65.31 48.58 C 63.44 52.58 63.23 59.58 64.31 61.82 C 64.757 62.708 65.051 63.665 65.18 64.65 L 63.92 66 L 62.34 66 L 61.45 65.25 Z " fill="rgb(255,255,0)"/><path d=" M 74.08 12.04 C 74.08 11.466 74.546 11 75.12 11 C 75.694 11 76.16 11.466 76.16 12.04 C 76.16 12.614 75.694 13.08 75.12 13.08 C 74.546 13.08 74.08 12.614 74.08 12.04 Z " fill="rgb(255,255,0)"/><path d=" M 76.35 13.83 C 76.35 13.471 76.641 13.18 77 13.18 C 77.359 13.18 77.65 13.471 77.65 13.83 C 77.65 14.189 77.359 14.48 77 14.48 C 76.641 14.48 76.35 14.189 76.35 13.83 Z " fill="rgb(255,255,0)"/><path d=" M 77.1 15.42 C 77.1 15.061 77.391 14.77 77.75 14.77 C 78.109 14.77 78.4 15.061 78.4 15.42 C 78.4 15.779 78.109 16.07 77.75 16.07 C 77.391 16.07 77.1 15.779 77.1 15.42 Z " fill="rgb(255,255,0)"/><path d=" M 77.85 17.08 C 77.85 16.721 78.141 16.43 78.5 16.43 C 78.859 16.43 79.15 16.721 79.15 17.08 C 79.15 17.439 78.859 17.73 78.5 17.73 C 78.141 17.73 77.85 17.439 77.85 17.08 Z " fill="rgb(255,255,0)"/><path d=" M 78.48 18.8 C 78.48 18.441 78.771 18.15 79.13 18.15 C 79.489 18.15 79.78 18.441 79.78 18.8 C 79.78 19.159 79.489 19.45 79.13 19.45 C 78.771 19.45 78.48 19.159 78.48 18.8 Z " fill="rgb(255,255,0)"/><path d=" M 75.79 20.05 C 75.79 19.691 76.081 19.4 76.44 19.4 C 76.799 19.4 77.09 19.691 77.09 20.05 C 77.09 20.409 76.799 20.7 76.44 20.7 C 76.081 20.7 75.79 20.409 75.79 20.05 Z " fill="rgb(255,255,0)"/><path d=" M 75.35 18.17 C 75.35 17.811 75.641 17.52 76 17.52 C 76.359 17.52 76.65 17.811 76.65 18.17 C 76.65 18.529 76.359 18.82 76 18.82 C 75.641 18.82 75.35 18.529 75.35 18.17 Z " fill="rgb(255,255,0)"/><path d=" M 74.35 14.5 C 74.35 14.141 74.641 13.85 75 13.85 C 75.359 13.85 75.65 14.141 75.65 14.5 C 75.65 14.859 75.359 15.15 75 15.15 C 74.641 15.15 74.35 14.859 74.35 14.5 Z " fill="rgb(255,255,0)"/><path d=" M 74.85 16.17 C 74.85 15.811 75.141 15.52 75.5 15.52 C 75.859 15.52 76.15 15.811 76.15 16.17 C 76.15 16.529 75.859 16.82 75.5 16.82 C 75.141 16.82 74.85 16.529 74.85 16.17 Z " fill="rgb(255,255,0)"/></g></svg>